<?xml version="1.0" encoding="UTF-8" standalone="no"?>
<!-- Created with Inkscape (http://www.inkscape.org/) -->

<svg
   width="133.19386mm"
   height="91.435638mm"
   viewBox="0 0 133.19386 91.435638"
   version="1.1"
   id="svg1"
   xml:space="preserve"
   inkscape:export-filename="logo.svg"
   inkscape:export-xdpi="96"
   inkscape:export-ydpi="96"
   xmlns:inkscape="http://www.inkscape.org/namespaces/inkscape"
   xmlns:sodipodi="http://sodipodi.sourceforge.net/DTD/sodipodi-0.dtd"
   xmlns="http://www.w3.org/2000/svg"
   xmlns:svg="http://www.w3.org/2000/svg"><sodipodi:namedview
     id="namedview1"
     pagecolor="#505050"
     bordercolor="#ffffff"
     borderopacity="1"
     inkscape:showpageshadow="0"
     inkscape:pageopacity="0"
     inkscape:pagecheckerboard="1"
     inkscape:deskcolor="#505050"
     inkscape:document-units="mm"
     showguides="true"><inkscape:page
       x="0"
       y="0"
       width="133.19386"
       height="91.435638"
       id="page2"
       margin="0"
       bleed="0" /></sodipodi:namedview><defs
     id="defs1" /><g
     inkscape:label="Layer 1"
     inkscape:groupmode="layer"
     id="layer1"
     transform="translate(179.32962,-66.00712)"><g
       id="g7"><g
         id="g6"
         transform="translate(1.300592e-5,0.0461528)"><path
           style="fill:#f9f9f9;stroke-width:0.116628"
           d="m -105.34669,145.69098 c -0.22567,-0.0485 -1.81572,-1.19292 -3.06159,-2.20347 -0.29438,-0.23876 -0.55354,-0.44719 -0.57593,-0.46314 -0.0296,-0.0211 -0.11149,0.0379 -0.29977,0.216 -0.82953,0.78458 -1.8941,1.1734 -2.91892,1.0661 -0.68502,-0.0717 -1.31957,-0.31044 -1.98064,-0.7451 -0.46538,-0.30598 -0.77152,-0.56306 -0.85115,-0.71474 -0.0567,-0.10811 -0.0559,-0.31281 10e-4,-0.42431 0.14799,-0.28617 1.16713,-0.91098 1.91239,-1.17242 0.54755,-0.19207 0.77717,-0.22971 1.41278,-0.23152 l 0.57802,-0.001 -0.27061,-0.27772 c -0.14883,-0.15275 -0.35338,-0.36826 -0.45458,-0.47892 -0.10118,-0.11066 -0.25863,-0.28179 -0.34988,-0.38029 l -0.1659,-0.17909 -0.0964,0.0916 c -0.39935,0.3797 -1.1356,0.52808 -1.87073,0.37702 -0.82543,-0.16964 -1.5471,-0.66024 -1.8385,-1.24986 -0.10619,-0.21486 -0.11974,-0.26933 -0.13099,-0.52644 -0.0111,-0.25491 -0.004,-0.30526 0.0635,-0.45302 0.13555,-0.29609 0.37404,-0.50458 0.71789,-0.62759 0.0849,-0.0304 0.16426,-0.0635 0.17643,-0.0738 0.0122,-0.0102 0.006,-0.1132 -0.0127,-0.22884 l -0.0349,-0.21024 -0.11074,0.0213 c -0.58479,0.11266 -1.08582,0.0534 -1.66503,-0.19665 -0.49533,-0.21389 -0.9307,-0.56891 -1.21023,-0.98683 -0.55243,-0.82595 -0.2426,-1.68974 0.68159,-1.90029 0.12476,-0.0284 0.16905,-0.0523 0.16716,-0.0902 -10e-4,-0.0284 -0.005,-0.12986 -0.007,-0.22555 l -0.005,-0.17398 -0.19573,0.02 c -0.59009,0.0604 -1.39012,-0.22534 -1.96029,-0.70029 -0.60181,-0.50131 -0.95149,-1.24485 -0.83939,-1.78486 0.0989,-0.47641 0.49408,-0.80397 1.0252,-0.84979 0.19796,-0.0171 0.20593,-0.0209 0.22372,-0.10991 0.0101,-0.0507 0.0184,-0.14705 0.0184,-0.21407 0,-0.16345 0.13487,-0.55624 0.24689,-0.71907 0.17016,-0.24731 0.36215,-0.36819 0.66128,-0.41635 0.3248,-0.0523 0.74707,0.0974 1.04634,0.37092 0.0924,0.0844 0.18305,0.15347 0.20155,0.15347 0.0185,0 0.1068,-0.0557 0.19625,-0.12367 0.24936,-0.18964 0.45378,-0.25933 0.76436,-0.26057 0.22902,-7e-4 0.28383,0.0101 0.43201,0.0867 0.42216,0.21819 0.6711,0.64071 0.74098,1.25763 0.085,0.74995 -0.18813,1.66438 -0.66332,2.22108 l -0.13834,0.16207 0.15256,0.10274 c 0.0839,0.0565 0.1571,0.10273 0.16266,0.10273 0.006,0 0.0841,-0.0695 0.17466,-0.15448 0.0905,-0.085 0.25661,-0.19903 0.36912,-0.25346 0.18013,-0.0871 0.23598,-0.0991 0.46741,-0.10009 0.23589,-7e-4 0.28395,0.009 0.46858,0.1001 0.5259,0.25878 0.81322,0.88244 0.80635,1.75026 -0.005,0.60593 -0.16091,1.1788 -0.43095,1.58151 -0.0738,0.10995 -0.12819,0.2094 -0.12102,0.22101 0.007,0.0116 0.0831,0.0538 0.16872,0.094 l 0.15567,0.0729 0.0681,-0.0898 c 0.14572,-0.1921 0.35167,-0.36352 0.54696,-0.45523 0.74578,-0.35025 1.48735,0.16404 1.75053,1.214 0.0819,0.32681 0.0824,1.1509 7e-4,1.48118 -0.11722,0.47487 -0.42018,0.97284 -0.69734,1.14621 l -0.0756,0.0473 0.0701,0.0898 c 0.32217,0.41298 2.5755,2.66646 2.62091,2.62105 0.006,-0.006 -0.003,-0.12668 -0.0216,-0.26617 -0.20331,-1.51067 0.46589,-2.83218 1.93357,-3.81841 0.46044,-0.3094 0.59539,-0.37526 0.76888,-0.37526 0.16827,0 0.31323,0.0755 0.41469,0.21601 0.0306,0.0424 0.0917,0.20212 0.13575,0.35486 0.64407,2.23463 0.0553,4.05882 -1.60452,4.97117 l -0.21173,0.11638 0.12092,0.10525 c 0.23796,0.2071 1.42082,1.07865 1.99857,1.47255 0.63982,0.43624 0.72112,0.52049 0.6855,0.71038 -0.0394,0.20997 -0.22945,0.33658 -0.43792,0.29174 z m -5.93619,-2.15742 c 0.44581,-0.0994 0.89675,-0.3224 1.29253,-0.63907 0.1377,-0.11017 0.25037,-0.21879 0.25037,-0.24138 0,-0.0957 -0.55784,-0.51743 -0.89696,-0.67811 -0.37184,-0.17618 -0.66339,-0.23952 -1.10882,-0.24088 -0.58411,-10e-4 -1.05986,0.11933 -1.67533,0.42655 -0.33063,0.16504 -0.73838,0.41221 -0.77335,0.4688 -0.0465,0.0752 0.88172,0.63572 1.29377,0.78122 0.52108,0.18398 1.13483,0.2306 1.61779,0.12287 z m 3.37213,-1.14778 c 0.57346,-0.28895 1.04901,-0.78838 1.29006,-1.35484 0.18539,-0.43566 0.22818,-0.69133 0.22701,-1.35651 -7e-4,-0.52991 -0.0107,-0.64719 -0.0821,-0.98254 -0.0446,-0.20943 -0.0882,-0.38795 -0.097,-0.39668 -0.009,-0.009 -0.13826,0.0654 -0.2878,0.16479 -0.38551,0.25618 -0.99748,0.87447 -1.19399,1.20632 -0.45736,0.77238 -0.52999,1.71345 -0.19886,2.57705 0.0504,0.13153 0.10496,0.23914 0.12119,0.23914 0.0162,0 0.11588,-0.0435 0.22148,-0.0967 z m -5.59617,-2.89829 c 0.10908,-0.0177 0.21124,-0.0402 0.22701,-0.0499 0.0158,-0.01 -0.0926,-0.0634 -0.2408,-0.11911 -0.14823,-0.0557 -0.36839,-0.16857 -0.48925,-0.25072 -0.29438,-0.20008 -0.67885,-0.59236 -0.86789,-0.88554 -0.14923,-0.23143 -0.15766,-0.23877 -0.25711,-0.22366 -0.0566,0.009 -0.16522,0.0459 -0.2415,0.0828 -0.65239,0.31582 0.24119,1.28813 1.33105,1.44834 0.22962,0.0337 0.31938,0.0334 0.53849,-0.003 z m 0.72681,-0.84843 c 0.083,-0.0633 0.10722,-0.10752 0.12343,-0.22542 0.0391,-0.28437 -0.15971,-0.85391 -0.42644,-1.2216 -0.36442,-0.50235 -0.94221,-0.912 -1.28632,-0.912 -0.21984,0 -0.33914,0.27283 -0.27511,0.62912 0.13173,0.73304 0.77978,1.52754 1.42897,1.75192 0.21725,0.0751 0.3146,0.0702 0.43547,-0.0221 z m 0.92883,-0.49982 c 0.0744,-0.17358 0.16641,-0.64657 0.1666,-0.85631 7e-4,-0.78372 -0.36809,-1.44533 -0.74734,-1.34061 -0.11394,0.0314 -0.39377,0.30032 -0.39377,0.37834 0,0.0238 0.0543,0.10493 0.12062,0.1803 0.19617,0.22285 0.45385,0.62852 0.5577,0.87796 0.10807,0.25957 0.21656,0.65458 0.21656,0.78839 0,0.11755 0.0203,0.11039 0.0797,-0.0281 z m -3.9239,-2.01021 c 0.0495,-0.0194 0.0368,-0.0321 -0.0771,-0.0778 -0.49419,-0.19761 -1.13658,-0.86739 -1.38751,-1.44666 -0.068,-0.15681 -0.0854,-0.17503 -0.16838,-0.17535 -0.23606,-7e-4 -0.48327,0.13881 -0.52255,0.29532 -0.0547,0.21807 0.19976,0.66184 0.52933,0.92298 0.23034,0.18253 0.61092,0.37034 0.90353,0.4459 0.23275,0.0601 0.61247,0.0788 0.72273,0.0356 z m 0.66126,-0.75437 c 0.1339,-0.14253 0.15856,-0.36906 0.0811,-0.7444 -0.16543,-0.80085 -0.87172,-1.67725 -1.42393,-1.76686 -0.22046,-0.0358 -0.34967,0.16017 -0.34967,0.53023 0,0.56793 0.33217,1.26558 0.80729,1.69553 0.36059,0.32632 0.73384,0.44669 0.88527,0.2855 z m 0.98613,-0.47552 c 0.14208,-0.30906 0.19442,-0.53845 0.21299,-0.93347 0.0195,-0.41433 -0.016,-0.62627 -0.14941,-0.89333 -0.10834,-0.21681 -0.22275,-0.31013 -0.38021,-0.31013 -0.14264,0 -0.24842,0.0557 -0.39698,0.20923 l -0.11784,0.12173 0.137,0.21254 c 0.35703,0.55391 0.54612,1.10364 0.54612,1.58773 0,0.11769 0.0119,0.21399 0.0263,0.21399 0.0145,0 0.0693,-0.0937 0.12203,-0.20829 z m -3.78328,-2.44722 c -0.47856,-0.27444 -0.9562,-0.90671 -1.19592,-1.58309 l -0.0859,-0.24249 -0.17226,0.013 c -0.45825,0.0346 -0.58205,0.292 -0.36163,0.75193 0.29593,0.61752 1.11499,1.14848 1.77858,1.153 l 0.20058,10e-4 z m 0.77403,-0.55636 c 0.15519,-0.0707 0.19184,-0.19203 0.19025,-0.62997 -0.001,-0.36687 -0.01,-0.4262 -0.0997,-0.6943 -0.24366,-0.72672 -0.80659,-1.38861 -1.18099,-1.38861 -0.19123,0 -0.33788,0.29095 -0.33788,0.67035 0,0.76275 0.50238,1.70535 1.05651,1.98224 0.20422,0.10204 0.26025,0.11113 0.37184,0.0603 z m 1.1143,-0.44088 c 0.21875,-0.36501 0.34625,-0.90308 0.31836,-1.34336 -0.0204,-0.32185 -0.0882,-0.52596 -0.22195,-0.66772 -0.0835,-0.0886 -0.12241,-0.10663 -0.2296,-0.10663 -0.15057,0 -0.28703,0.062 -0.4254,0.19327 l -0.0988,0.0938 0.0735,0.12648 c 0.10412,0.17917 0.24888,0.55623 0.32901,0.85699 0.054,0.20282 0.0689,0.3461 0.0707,0.68013 0.003,0.47135 0.003,0.471 0.18424,0.16706 z"
           id="path1" /><text
           xml:space="preserve"
           style="font-size:30.4339px;text-align:center;letter-spacing:0px;writing-mode:lr-tb;direction:ltr;text-anchor:middle;fill:#ffffff;stroke-width:2.53616"
           x="-112.78471"
           y="84.7584"
           id="text1"><tspan
             sodipodi:role="line"
             x="-112.78471"
             y="84.7584"
             style="font-style:normal;font-variant:normal;font-weight:normal;font-stretch:normal;font-family:Serif;-inkscape-font-specification:Serif;letter-spacing:0px;fill:#ffffff;stroke-width:2.53616"
             id="tspan2"
             dy="14.03">doris</tspan><tspan
             sodipodi:role="line"
             x="-112.78471"
             y="123.55278"
             style="font-style:normal;font-variant:normal;font-weight:normal;font-stretch:normal;font-family:Serif;-inkscape-font-specification:Serif;letter-spacing:0px;fill:#ffffff;stroke-width:2.53616"
             id="tspan4">flowers</tspan></text></g><rect
         style="fill:none;stroke:#ffffff;stroke-width:1.48232;stroke-dasharray:none"
         id="rect6"
         width="131.71153"
         height="89.953316"
         x="-178.58846"
         y="66.748276" /></g></g></svg>
